<svg xmlns="http://www.w3.org/2000/svg" data-name="Layer 1" viewBox="0 0 100 125" x="0px" y="0px"><path d="M87,4.71143H13v44H29.27063l-10.00012,48h7.043l4.16632-20H46.5v15h7v-15H69.52026l4.16626,20h7.043l-10.00012-48H87Zm-2,34H80v-4H61v4H15v-32H85Zm0,8H15v-6H85Zm-6.72949,48h-2.957l-9.58411-46h2.95795Zm-47.374-20,.41663-2H68.68689l.41663,2Zm20.60352,15h-3v-13h3Zm-26.81348,5h-2.957l9.58319-46h2.95795Zm21.81348-46v22H31.72974l4.583-22Zm17.18726,0,4.583,22H53.5v-22Zm-12.18726,22h-3v-22h3Zm26.5-32H69v-2h9Zm-11,0H63v-2h4Z"/><path d="M21,14.71143a3,3,0,1,0-3-3A3.00328,3.00328,0,0,0,21,14.71143Zm0-4a1,1,0,1,1-1,1A1.00068,1.00068,0,0,1,21,10.71143Z"/><path d="M21,22.71143a3,3,0,1,0-3-3A3.00328,3.00328,0,0,0,21,22.71143Zm0-4a1,1,0,1,1-1,1A1.00068,1.00068,0,0,1,21,18.71143Z"/><text x="0" y="115" fill="#000000" font-size="5px" font-weight="bold" font-family="'Helvetica Neue', Helvetica, Arial-Unicode, Arial, Sans-serif">Created by Aidan Cooke</text><text x="0" y="120" fill="#000000" font-size="5px" font-weight="bold" font-family="'Helvetica Neue', Helvetica, Arial-Unicode, Arial, Sans-serif">from the Noun Project</text></svg>