<svg xmlns="http://www.w3.org/2000/svg" xmlns:xlink="http://www.w3.org/1999/xlink" version="1.1" x="0px" y="0px" viewBox="0 0 100 125" style="enable-background:new 0 0 100 100;" xml:space="preserve"><g><g><path d="M94.4,16.7h-90c-2.8,0-5,2.2-5,5v59.9c0,2.8,2.2,5,5,5h15h23.3h51.7c2.8,0,5-2.2,5-5V21.7C99.4,18.9,97.2,16.7,94.4,16.7z     M22.8,83.2v-1.6c0-0.9,0.8-1.7,1.7-1.7h13.3c0.9,0,1.7,0.7,1.7,1.7v1.7H22.8z M96.1,81.5c0,0.9-0.7,1.7-1.7,1.7H42.8v-1.7    c0-2.7-2.2-5-5-5H24.5c-2.8,0-5,2.2-5,5v1.6h-15c-0.9,0-1.7-0.7-1.7-1.7V58.1c2-0.1,3.8-0.4,5.4-1c0.9-0.3,1.3-1.3,1-2.1    c-0.3-0.9-1.3-1.3-2.1-1c-1.2,0.4-2.7,0.7-4.3,0.8V21.7c0-0.9,0.7-1.7,1.7-1.7h90c0.9,0,1.7,0.7,1.7,1.7V81.5z"/><path d="M32.4,35.8c-0.9-0.3-1.8,0.1-2.2,0.9c-0.3,0.9,0.1,1.8,0.9,2.2c1.6,0.6,2.9,1.8,4.2,3.7c0.3,0.5,0.8,0.7,1.4,0.7    c0.3,0,0.7-0.1,0.9-0.3c0.8-0.5,1-1.6,0.4-2.3C36.4,38.2,34.6,36.7,32.4,35.8z"/><path d="M24.9,35.3c-2.6,0.6-4.6,2-6.4,4.2c-0.5,0.7-0.4,1.8,0.3,2.3c0.3,0.2,0.6,0.3,1,0.3c0.5,0,1-0.2,1.3-0.7    c1.2-1.7,2.6-2.6,4.4-3c0.9-0.2,1.5-1.1,1.3-2C26.7,35.6,25.8,35.1,24.9,35.3z"/><path d="M17.4,44.8c-0.8-0.4-1.8-0.1-2.2,0.7c-0.9,1.7-1.9,3.7-3.3,5.2c-0.6,0.7-0.6,1.7,0.1,2.3c0.3,0.3,0.7,0.4,1.1,0.4    c0.5,0,0.9-0.2,1.2-0.6c1.7-1.9,2.8-4.1,3.8-6C18.6,46.2,18.2,45.2,17.4,44.8z"/><path d="M41.5,46.6c-0.4-0.8-1.5-1.1-2.3-0.6c-0.8,0.4-1.1,1.5-0.6,2.3c1,1.8,2.3,4,4.2,5.8c0.3,0.3,0.7,0.5,1.2,0.5    c0.4,0,0.9-0.2,1.2-0.5c0.6-0.7,0.6-1.7,0-2.4C43.6,50.1,42.4,48.2,41.5,46.6z"/><path d="M54.4,54.9L54.4,54.9c-1.5,0-3.1-0.2-4.4-0.5c-0.9-0.2-1.8,0.3-2,1.2c-0.2,0.9,0.3,1.8,1.2,2c1.6,0.4,3.3,0.6,5.2,0.6    c0,0,0,0,0,0c0.9,0,1.7-0.7,1.7-1.7C56.1,55.7,55.4,54.9,54.4,54.9z"/><path d="M83.9,32.9c-1.9-1.9-5.2-1.9-7.1,0L62.1,47.6c-0.2,0.2-0.4,0.5-0.4,0.8L60,55.8c-0.1,0.6,0,1.1,0.5,1.5    c0.3,0.3,0.7,0.5,1.2,0.5c0.1,0,0.2,0,0.4,0l7.4-1.6c0.3-0.1,0.6-0.2,0.8-0.4L84.9,41c0.9-0.9,1.5-2.2,1.5-3.5    c0-1.3-0.5-2.6-1.5-3.5L83.9,32.9z M64.7,50.1l3,3l-3.8,0.9L64.7,50.1z M82.5,38.7L70.2,50.9l-3.4-3.4l12.3-12.3    c0.6-0.6,1.7-0.6,2.4,0l1,1c0.3,0.3,0.5,0.7,0.5,1.2C83,37.9,82.8,38.3,82.5,38.7z"/></g><g><path d="M94.4,16.7h-90c-2.8,0-5,2.2-5,5v59.9c0,2.8,2.2,5,5,5h15h23.3h51.7c2.8,0,5-2.2,5-5V21.7C99.4,18.9,97.2,16.7,94.4,16.7z     M22.8,83.2v-1.6c0-0.9,0.8-1.7,1.7-1.7h13.3c0.9,0,1.7,0.7,1.7,1.7v1.7H22.8z M96.1,81.5c0,0.9-0.7,1.7-1.7,1.7H42.8v-1.7    c0-2.7-2.2-5-5-5H24.5c-2.8,0-5,2.2-5,5v1.6h-15c-0.9,0-1.7-0.7-1.7-1.7V58.1c2-0.1,3.8-0.4,5.4-1c0.9-0.3,1.3-1.3,1-2.1    c-0.3-0.9-1.3-1.3-2.1-1c-1.2,0.4-2.7,0.7-4.3,0.8V21.7c0-0.9,0.7-1.7,1.7-1.7h90c0.9,0,1.7,0.7,1.7,1.7V81.5z"/><path d="M32.4,35.8c-0.9-0.3-1.8,0.1-2.2,0.9c-0.3,0.9,0.1,1.8,0.9,2.2c1.6,0.6,2.9,1.8,4.2,3.7c0.3,0.5,0.8,0.7,1.4,0.7    c0.3,0,0.7-0.1,0.9-0.3c0.8-0.5,1-1.6,0.4-2.3C36.4,38.2,34.6,36.7,32.4,35.8z"/><path d="M24.9,35.3c-2.6,0.6-4.6,2-6.4,4.2c-0.5,0.7-0.4,1.8,0.3,2.3c0.3,0.2,0.6,0.3,1,0.3c0.5,0,1-0.2,1.3-0.7    c1.2-1.7,2.6-2.6,4.4-3c0.9-0.2,1.5-1.1,1.3-2C26.7,35.6,25.8,35.1,24.9,35.3z"/><path d="M17.4,44.8c-0.8-0.4-1.8-0.1-2.2,0.7c-0.9,1.7-1.9,3.7-3.3,5.2c-0.6,0.7-0.6,1.7,0.1,2.3c0.3,0.3,0.7,0.4,1.1,0.4    c0.5,0,0.9-0.2,1.2-0.6c1.7-1.9,2.8-4.1,3.8-6C18.6,46.2,18.2,45.2,17.4,44.8z"/><path d="M41.5,46.6c-0.4-0.8-1.5-1.1-2.3-0.6c-0.8,0.4-1.1,1.5-0.6,2.3c1,1.8,2.3,4,4.2,5.8c0.3,0.3,0.7,0.5,1.2,0.5    c0.4,0,0.9-0.2,1.2-0.5c0.6-0.7,0.6-1.7,0-2.4C43.6,50.1,42.4,48.2,41.5,46.6z"/><path d="M54.4,54.9L54.4,54.9c-1.5,0-3.1-0.2-4.4-0.5c-0.9-0.2-1.8,0.3-2,1.2c-0.2,0.9,0.3,1.8,1.2,2c1.6,0.4,3.3,0.6,5.2,0.6    c0,0,0,0,0,0c0.9,0,1.7-0.7,1.7-1.7C56.1,55.7,55.4,54.9,54.4,54.9z"/><path d="M83.9,32.9c-1.9-1.9-5.2-1.9-7.1,0L62.1,47.6c-0.2,0.2-0.4,0.5-0.4,0.8L60,55.8c-0.1,0.6,0,1.1,0.5,1.5    c0.3,0.3,0.7,0.5,1.2,0.5c0.1,0,0.2,0,0.4,0l7.4-1.6c0.3-0.1,0.6-0.2,0.8-0.4L84.9,41c0.9-0.9,1.5-2.2,1.5-3.5    c0-1.3-0.5-2.6-1.5-3.5L83.9,32.9z M64.7,50.1l3,3l-3.8,0.9L64.7,50.1z M82.5,38.7L70.2,50.9l-3.4-3.4l12.3-12.3    c0.6-0.6,1.7-0.6,2.4,0l1,1c0.3,0.3,0.5,0.7,0.5,1.2C83,37.9,82.8,38.3,82.5,38.7z"/></g></g><text x="0" y="115" fill="#000000" font-size="5px" font-weight="bold" font-family="'Helvetica Neue', Helvetica, Arial-Unicode, Arial, Sans-serif">Created by RomanP</text><text x="0" y="120" fill="#000000" font-size="5px" font-weight="bold" font-family="'Helvetica Neue', Helvetica, Arial-Unicode, Arial, Sans-serif">from the Noun Project</text></svg>